<?xml version="1.0" encoding="UTF-8" standalone="no"?>
<!DOCTYPE svg PUBLIC "-//W3C//DTD SVG 1.1//EN" "http://www.w3.org/Graphics/SVG/1.1/DTD/svg11.dtd">
<svg width="100%" height="100%" viewBox="0 0 1275 521" version="1.1" xmlns="http://www.w3.org/2000/svg" xmlns:xlink="http://www.w3.org/1999/xlink" xml:space="preserve" xmlns:serif="http://www.serif.com/" style="fill-rule:evenodd;clip-rule:evenodd;stroke-linejoin:round;stroke-miterlimit:2;">
    <g transform="matrix(4.16667,0,0,4.16667,0,0)">
        <path d="M64.932,0.731C68.855,1.754 72.456,4.097 74.142,7.532C75.828,10.97 81.731,18.617 85.119,27.521C85.989,20.843 83.664,19.577 82.916,16.676C82.737,15.974 83.36,16.49 83.28,16.196C85.749,19.475 86.862,24.326 86.136,28.082C88.313,29.165 91.989,32.264 90.773,36.305C92.571,37.295 94.712,37.973 94.56,41C94.313,45.911 85.698,47.846 85.221,47.174C84.38,46.001 84.828,43.781 84.345,40.721C80.763,42.134 76.214,43.103 74.385,39.902C73.722,40.454 72.342,41.747 70.407,42.233C69.051,46.685 63.555,49.211 59.753,49.817C57.306,50.207 51.051,50.846 50.273,48.125C43.887,48.911 39.317,48.449 38.538,47.192C37.062,44.816 38.855,33.908 46.641,28.106C51.561,24.434 62.664,23.069 68.763,25.487C58.502,18.422 53.952,16.778 55.814,4.778C56.42,0.872 61.368,-0.199 64.932,0.731Z" style="fill:rgb(35,31,32);fill-rule:nonzero;"/>
        <path d="M64.932,0.731C68.855,1.754 72.456,4.097 74.142,7.532C75.828,10.97 81.731,18.617 85.119,27.521C85.989,20.843 83.664,19.577 82.916,16.676C82.737,15.974 83.36,16.49 83.28,16.196C85.749,19.475 86.862,24.326 86.136,28.082C88.313,29.165 91.989,32.264 90.773,36.305C92.571,37.295 94.712,37.973 94.56,41C94.313,45.911 85.698,47.846 85.221,47.174C84.38,46.001 84.828,43.781 84.345,40.721C80.763,42.134 76.214,43.103 74.385,39.902C73.722,40.454 72.342,41.747 70.407,42.233C69.051,46.685 63.555,49.211 59.753,49.817C57.306,50.207 51.051,50.846 50.273,48.125C43.887,48.911 39.317,48.449 38.538,47.192C37.062,44.816 38.855,33.908 46.641,28.106C51.561,24.434 62.664,23.069 68.763,25.487C58.502,18.422 53.952,16.778 55.814,4.778C56.42,0.872 61.368,-0.199 64.932,0.731Z" style="fill:none;stroke:rgb(35,31,32);stroke-width:0.01px;"/>
        <path d="M74.577,9.538C71.666,4.196 67.908,1.393 62.178,1.288C59.718,1.241 56.76,2.648 56.396,4.898C54.054,19.406 65.181,20.746 76.02,28.972C79.214,25.778 81.957,26.834 84.047,27.325C82.337,21.202 77.472,14.858 74.577,9.538Z" style="fill:white;fill-rule:nonzero;"/>
        <path d="M74.577,9.538C71.666,4.196 67.908,1.393 62.178,1.288C59.718,1.241 56.76,2.648 56.396,4.898C54.054,19.406 65.181,20.746 76.02,28.972C79.214,25.778 81.957,26.834 84.047,27.325C82.337,21.202 77.472,14.858 74.577,9.538Z" style="fill:none;stroke:rgb(35,31,32);stroke-width:0.01px;"/>
        <path d="M83.632,29.261C83.635,27.02 79.213,27.521 77.215,29.261C78.826,30.035 83.632,30.359 83.632,29.261Z" style="fill:white;fill-rule:nonzero;"/>
        <path d="M83.632,29.261C83.635,27.02 79.213,27.521 77.215,29.261C78.826,30.035 83.632,30.359 83.632,29.261Z" style="fill:none;stroke:rgb(35,31,32);stroke-width:0.01px;"/>
        <path d="M89.217,36.625C90.309,35.431 90.15,33.424 89.088,32.167C85.893,33.52 79.215,36.523 80.496,40.696C83.571,39.91 86.475,39.619 89.217,36.625Z" style="fill:rgb(255,200,36);fill-rule:nonzero;"/>
        <path d="M89.217,36.625C90.309,35.431 90.15,33.424 89.088,32.167C85.893,33.52 79.215,36.523 80.496,40.696C83.571,39.91 86.475,39.619 89.217,36.625Z" style="fill:none;stroke:rgb(35,31,32);stroke-width:0.01px;"/>
        <path d="M73.808,39.113C72.148,36.812 71.957,32.843 75.484,29.537C71.375,25.97 64.309,24.131 57.19,25.358C59.954,28.196 60.823,34.004 61.31,37.973C66.535,37.295 68.566,39.329 70.303,41.324C71.666,41.168 72.922,40.103 73.808,39.113Z" style="fill:rgb(255,200,36);fill-rule:nonzero;"/>
        <path d="M73.808,39.113C72.148,36.812 71.957,32.843 75.484,29.537C71.375,25.97 64.309,24.131 57.19,25.358C59.954,28.196 60.823,34.004 61.31,37.973C66.535,37.295 68.566,39.329 70.303,41.324C71.666,41.168 72.922,40.103 73.808,39.113Z" style="fill:none;stroke:rgb(35,31,32);stroke-width:0.41px;"/>
        <path d="M50.384,47.063C50.954,38.456 46.985,29.456 44.396,31.841C41.207,34.778 36.686,45.398 39.698,47.012C42.338,48.425 50.384,47.063 50.384,47.063Z" style="fill:white;fill-rule:nonzero;"/>
        <path d="M50.384,47.063C50.954,38.456 46.985,29.456 44.396,31.841C41.207,34.778 36.686,45.398 39.698,47.012C42.338,48.425 50.384,47.063 50.384,47.063Z" style="fill:none;stroke:rgb(35,31,32);stroke-width:0.01px;"/>
        <path d="M60.216,48.68C64.227,47.741 69.003,44.444 68.91,42.518C68.76,39.329 63.825,37.682 58.047,39.269C52.617,40.757 50.565,44.264 51.384,47.558C51.846,49.43 56.205,49.616 60.216,48.68Z" style="fill:rgb(255,200,36);fill-rule:nonzero;"/>
        <path d="M60.216,48.68C64.227,47.741 69.003,44.444 68.91,42.518C68.76,39.329 63.825,37.682 58.047,39.269C52.617,40.757 50.565,44.264 51.384,47.558C51.846,49.43 56.205,49.616 60.216,48.68Z" style="fill:none;stroke:rgb(35,31,32);stroke-width:0.01px;"/>
        <rect x="47.508" y="53.536" width="16.407" height="49.359" style="fill:rgb(35,31,32);fill-rule:nonzero;"/>
        <path d="M62.011,78.216C62.011,64.496 73.135,53.372 86.854,53.372C100.577,53.372 111.698,64.496 111.698,78.216C111.698,91.934 100.577,103.058 86.854,103.058C73.135,103.058 62.011,91.934 62.011,78.216ZM86.854,86.634C91.504,86.634 95.272,82.863 95.272,78.216C95.272,73.565 91.504,69.798 86.854,69.798C82.204,69.798 78.436,73.565 78.436,78.216C78.436,82.863 82.204,86.634 86.854,86.634Z" style="fill:rgb(35,31,32);fill-rule:nonzero;"/>
        <path d="M186.446,102.895L186.446,86.492L182.382,86.429C179.357,86.429 176.567,84.647 175.143,82.211C175.124,82.136 186.437,82.28 186.437,82.28L186.443,74.164L175.011,74.168C176.396,71.599 179.259,70.001 182.382,70.001L186.446,69.941L186.446,53.536L182.382,53.476C168.72,53.476 157.641,64.553 157.644,78.215C157.644,91.88 168.72,102.955 182.382,102.955L186.446,102.895Z" style="fill:rgb(35,31,32);fill-rule:nonzero;"/>
        <path d="M109.793,102.895L109.793,37.13L126.197,37.13L126.197,86.492L134.474,86.429C139.01,86.429 142.688,82.751 142.688,78.215C142.688,73.679 139.01,70.001 134.474,70.001L130.409,69.941L130.409,53.536L134.474,53.476C148.139,53.476 159.215,64.553 159.215,78.215C159.215,91.88 148.136,102.955 134.474,102.955L109.793,102.895Z" style="fill:rgb(35,31,32);fill-rule:nonzero;"/>
        <path d="M0.037,102.895L0.037,37.13L16.444,37.13L16.444,86.492L24.718,86.429C29.254,86.429 32.932,82.751 32.932,78.215C32.929,73.679 29.254,70.004 24.718,70.001L20.653,69.941L20.653,53.536L24.718,53.476C38.383,53.476 49.459,64.553 49.459,78.215C49.459,91.88 38.38,102.955 24.718,102.955L0.037,102.895Z" style="fill:rgb(35,31,32);fill-rule:nonzero;"/>
        <path d="M280.813,102.895L280.813,53.536L293.153,53.536L293.153,37.13L252.212,37.13L252.212,53.536L264.407,53.536L264.407,102.895L280.813,102.895Z" style="fill:rgb(35,31,32);fill-rule:nonzero;"/>
        <path d="M186.446,86.584L186.446,102.903C204.533,102.903 220.38,86.38 228.566,69.94C232.613,61.813 243.144,53.554 252.213,53.554L252.213,37.231C234.129,37.231 218.766,53.446 210.393,69.94C206.192,78.217 195.519,86.584 186.446,86.584Z" style="fill:rgb(35,31,32);fill-rule:nonzero;"/>
        <path d="M227.156,69.94C219.158,86.005 204.305,101.808 186.443,101.817L186.435,87.463C196.538,87.436 207.356,78.562 211.646,69.946C219.647,53.881 234.671,38.215 252.212,38.215L252.221,52.57C242.606,52.57 231.446,61.324 227.156,69.94Z" style="fill:rgb(255,200,36);fill-rule:nonzero;"/>
        <path d="M227.156,69.94C219.158,86.005 204.305,101.808 186.443,101.817L186.435,87.463C196.538,87.436 207.356,78.562 211.646,69.946C219.647,53.881 234.671,38.215 252.212,38.215L252.221,52.57C242.606,52.57 231.446,61.324 227.156,69.94Z" style="fill:none;stroke:rgb(35,31,32);stroke-width:0.77px;stroke-linejoin:miter;"/>
        <path d="M298.018,37.026C298.018,34.839 299.753,33.087 301.936,33.087C304.114,33.087 305.857,34.839 305.857,37.026C305.857,39.196 304.114,40.944 301.936,40.944C299.753,40.944 298.018,39.196 298.018,37.026ZM304.928,37.026C304.928,35.265 303.619,34.017 301.936,34.017C300.227,34.017 298.948,35.265 298.948,37.026C298.948,38.769 300.227,40.014 301.936,40.014C303.619,40.014 304.928,38.769 304.928,37.026ZM303.817,39.015L302.827,39.015L301.919,37.293L301.285,37.293L301.285,39.015L300.374,39.015L300.374,34.938L302.353,34.938C303.293,34.938 303.937,35.106 303.937,36.186C303.937,36.936 303.551,37.245 302.827,37.293L303.817,39.015ZM302.375,36.681C302.827,36.681 303.086,36.582 303.086,36.066C303.086,35.652 302.56,35.652 302.165,35.652L301.285,35.652L301.285,36.681L302.375,36.681Z" style="fill:rgb(35,31,32);fill-rule:nonzero;"/>
        <path d="M279.522,114.083L279.522,112.412L271.143,112.412L271.143,114.083L274.356,114.083L274.356,124.512L276.324,124.512L276.324,114.083L279.522,114.083ZM260.631,124.512L260.631,116.099C260.808,116.348 260.993,116.582 261.189,116.81C261.384,117.035 261.588,117.251 261.798,117.455L269.64,124.982L269.64,112.412L267.822,112.412L267.822,120.8C267.585,120.503 267.36,120.236 267.143,119.999C266.928,119.763 266.715,119.54 266.508,119.33L258.821,111.935L258.821,124.512L260.631,124.512ZM256.566,124.512L256.566,122.75L251.781,122.75L251.781,118.841L256.566,118.841L256.566,117.117L251.781,117.117L251.781,114.083L256.566,114.083L256.566,112.412L249.813,112.412L249.813,124.512L256.566,124.512ZM246.417,124.512L248.244,124.512L245.319,111.902L241.83,119.528C241.797,119.606 241.749,119.714 241.683,119.858C241.434,120.395 241.254,120.833 241.137,121.181C240.978,120.767 240.84,120.419 240.729,120.14C240.615,119.858 240.531,119.657 240.477,119.537L236.907,111.902L234.048,124.512L235.857,124.512L237.153,118.553C237.225,118.25 237.279,117.959 237.315,117.681C237.351,117.404 237.372,117.138 237.378,116.885C237.447,117.131 237.531,117.383 237.63,117.635C237.726,117.89 237.84,118.151 237.972,118.421L241.137,125L244.302,118.553C244.44,118.268 244.554,117.986 244.647,117.71C244.734,117.434 244.806,117.159 244.854,116.885C244.887,117.117 244.929,117.407 244.971,117.761C245.022,118.184 245.058,118.445 245.079,118.535L246.417,124.512ZM232.956,124.512L232.956,122.75L228.171,122.75L228.171,118.841L232.956,118.841L232.956,117.117L228.171,117.117L228.171,114.083L232.956,114.083L232.956,112.412L226.203,112.412L226.203,124.512L232.956,124.512ZM219.312,119.975L222.222,119.975L222.222,120.149C222.222,121.052 221.898,121.766 221.253,122.288C220.608,122.813 219.726,123.074 218.601,123.074C217.278,123.074 216.204,122.648 215.373,121.796C214.545,120.947 214.131,119.837 214.131,118.469C214.131,117.125 214.545,116.034 215.373,115.193C216.204,114.353 217.275,113.933 218.586,113.933C219.219,113.933 219.792,114.05 220.302,114.281C220.815,114.513 221.277,114.863 221.686,115.337L223.122,114.257C222.531,113.54 221.862,113.009 221.109,112.661C220.356,112.313 219.504,112.14 218.553,112.14C217.647,112.14 216.801,112.292 216.006,112.595C215.214,112.898 214.521,113.339 213.933,113.918C213.321,114.506 212.859,115.187 212.55,115.958C212.238,116.729 212.082,117.572 212.082,118.487C212.082,119.384 212.235,120.227 212.541,121.016C212.847,121.806 213.285,122.489 213.858,123.074C214.443,123.665 215.124,124.103 215.898,124.397C216.675,124.688 217.561,124.832 218.553,124.832C220.326,124.832 221.7,124.364 222.675,123.419C223.65,122.48 224.139,121.157 224.139,119.453C224.139,119.315 224.13,119.051 224.115,118.661C224.109,118.511 224.106,118.397 224.106,118.313L219.312,118.313L219.312,119.975ZM211.767,124.512L205.917,111.935L200.058,124.512L202.125,124.512L203.529,121.397L208.32,121.397L209.694,124.512L211.767,124.512ZM205.494,116.999C205.572,116.807 205.647,116.598 205.722,116.367C205.797,116.139 205.866,115.892 205.932,115.628C206.01,115.91 206.088,116.162 206.166,116.393C206.241,116.621 206.316,116.826 206.388,116.999L207.627,119.759L204.255,119.759L205.494,116.999ZM189.918,124.512L189.918,116.099C190.092,116.348 190.278,116.582 190.476,116.81C190.671,117.035 190.872,117.251 191.085,117.455L198.924,124.982L198.924,112.412L197.109,112.412L197.109,120.8C196.872,120.503 196.644,120.236 196.431,119.999C196.215,119.763 196.002,119.54 195.795,119.33L188.109,111.935L188.109,124.512L189.918,124.512ZM186.969,124.512L181.116,111.935L175.257,124.512L177.324,124.512L178.728,121.397L183.522,121.397L184.893,124.512L186.969,124.512ZM180.696,116.999C180.771,116.807 180.849,116.598 180.921,116.367C180.996,116.139 181.068,115.892 181.134,115.628C181.212,115.91 181.287,116.162 181.365,116.393C181.443,116.621 181.515,116.826 181.587,116.999L182.826,119.759L179.454,119.759L180.696,116.999ZM173.505,124.512L175.332,124.512L172.407,111.902L168.918,119.528C168.885,119.606 168.837,119.714 168.771,119.858C168.522,120.395 168.342,120.833 168.225,121.181C168.066,120.767 167.931,120.419 167.817,120.14C167.703,119.858 167.619,119.657 167.565,119.537L163.995,111.902L161.136,124.512L162.945,124.512L164.241,118.553C164.313,118.25 164.367,117.959 164.403,117.681C164.439,117.404 164.457,117.138 164.466,116.885C164.538,117.131 164.622,117.383 164.718,117.635C164.814,117.89 164.928,118.151 165.061,118.421L168.225,125L171.39,118.553C171.528,118.268 171.642,117.986 171.732,117.71C171.825,117.434 171.894,117.159 171.945,116.885C171.978,117.117 172.017,117.407 172.059,117.761C172.11,118.184 172.146,118.445 172.167,118.535L173.505,124.512ZM150.027,119.084L151.161,119.084C152.043,119.084 152.691,119.036 153.108,118.94C153.522,118.848 153.885,118.691 154.194,118.469C154.572,118.196 154.872,117.815 155.088,117.329C155.301,116.847 155.409,116.315 155.409,115.743C155.409,115.172 155.301,114.647 155.088,114.17C154.872,113.693 154.572,113.315 154.194,113.034C153.885,112.814 153.522,112.655 153.108,112.559C152.691,112.463 152.043,112.412 151.161,112.412L148.185,112.412L148.185,124.512L150.027,124.512L150.027,119.084ZM150.153,114.098L150.657,114.098C151.698,114.098 152.412,114.23 152.802,114.494C153.189,114.758 153.384,115.214 153.384,115.859C153.384,116.459 153.201,116.879 152.838,117.117C152.475,117.353 151.746,117.47 150.657,117.47L150.153,117.47L150.153,114.098ZM145.446,116.055C145.122,115.286 144.654,114.597 144.039,113.984C143.418,113.381 142.722,112.925 141.942,112.61C141.162,112.298 140.337,112.14 139.467,112.14C138.591,112.14 137.763,112.298 136.98,112.61C136.197,112.925 135.498,113.381 134.88,113.984C134.265,114.59 133.797,115.274 133.476,116.042C133.155,116.807 132.996,117.623 132.996,118.487C132.996,119.357 133.155,120.173 133.476,120.932C133.797,121.694 134.265,122.375 134.88,122.975C135.486,123.569 136.185,124.028 136.977,124.349C137.766,124.674 138.597,124.832 139.467,124.832C140.325,124.832 141.147,124.674 141.93,124.355C142.71,124.035 143.415,123.576 144.039,122.975C144.654,122.375 145.122,121.691 145.446,120.926C145.77,120.159 145.929,119.348 145.929,118.487C145.929,117.632 145.77,116.822 145.446,116.055ZM143.544,120.218C143.322,120.767 143.001,121.256 142.584,121.685C142.158,122.114 141.681,122.444 141.15,122.669C140.616,122.894 140.058,123.008 139.467,123.008C138.867,123.008 138.3,122.894 137.766,122.669C137.229,122.444 136.755,122.114 136.335,121.685C135.915,121.256 135.597,120.767 135.378,120.222C135.156,119.678 135.045,119.099 135.045,118.487C135.045,117.872 135.156,117.287 135.378,116.735C135.597,116.183 135.915,115.697 136.335,115.271C136.755,114.842 137.232,114.515 137.769,114.29C138.306,114.065 138.873,113.952 139.467,113.952C140.061,113.952 140.628,114.065 141.165,114.293C141.702,114.521 142.176,114.848 142.584,115.271C143.001,115.703 143.322,116.192 143.544,116.744C143.769,117.293 143.88,117.875 143.88,118.487C143.88,119.093 143.769,119.669 143.544,120.218ZM126.114,119.099L130.136,124.512L132.36,124.512L128.196,119.009C129.11,118.898 129.8,118.568 130.269,118.019C130.737,117.473 130.97,116.714 130.97,115.743C130.97,115.193 130.869,114.686 130.664,114.224C130.461,113.759 130.173,113.381 129.798,113.09C129.483,112.848 129.104,112.676 128.66,112.571C128.216,112.466 127.596,112.412 126.789,112.412L124.047,112.412L124.047,124.512L125.889,124.512L125.889,119.099L126.114,119.099ZM126.015,114.098L126.369,114.098C127.362,114.098 128.039,114.236 128.406,114.509C128.772,114.779 128.955,115.25 128.955,115.916C128.955,116.535 128.784,116.963 128.442,117.206C128.1,117.449 127.41,117.569 126.369,117.569L126.015,117.569L126.015,114.098ZM121.716,113.372C121.11,112.952 120.486,112.64 119.841,112.433C119.196,112.226 118.518,112.124 117.807,112.124C116.904,112.124 116.064,112.277 115.287,112.583C114.51,112.89 113.82,113.339 113.22,113.933C112.62,114.524 112.161,115.208 111.846,115.988C111.528,116.768 111.369,117.599 111.369,118.487C111.369,119.372 111.528,120.209 111.846,120.995C112.161,121.781 112.614,122.462 113.205,123.041C113.799,123.629 114.489,124.077 115.275,124.379C116.061,124.682 116.916,124.832 117.84,124.832C118.569,124.832 119.244,124.739 119.865,124.554C120.489,124.364 121.065,124.082 121.593,123.704L121.593,121.478C120.999,121.992 120.378,122.375 119.73,122.627C119.082,122.882 118.401,123.008 117.684,123.008C116.454,123.008 115.437,122.582 114.63,121.736C113.823,120.888 113.418,119.81 113.418,118.502C113.418,117.155 113.835,116.055 114.663,115.205C115.494,114.359 116.568,113.933 117.891,113.933C118.575,113.933 119.226,114.053 119.844,114.29C120.465,114.527 121.053,114.881 121.608,115.355L121.716,113.372ZM104.535,124.512L104.535,122.75L99.75,122.75L99.75,118.841L104.535,118.841L104.535,117.117L99.75,117.117L99.75,114.083L104.535,114.083L104.535,112.412L97.785,112.412L97.785,124.512L104.535,124.512ZM96.188,124.512L96.188,122.75L91.793,122.75L91.793,112.412L89.826,112.412L89.826,124.512L96.188,124.512ZM83.142,124.512C84.296,124.512 85.122,124.442 85.61,124.305C86.1,124.166 86.511,123.93 86.844,123.593C87.156,123.285 87.398,122.912 87.569,122.472C87.741,122.03 87.828,121.565 87.828,121.073C87.828,120.264 87.624,119.594 87.219,119.06C86.813,118.529 86.259,118.208 85.554,118.1C86.121,117.93 86.553,117.626 86.85,117.194C87.149,116.763 87.296,116.223 87.296,115.577C87.296,115.037 87.194,114.545 86.988,114.098C86.781,113.654 86.49,113.291 86.115,113.015C85.824,112.802 85.47,112.646 85.053,112.553C84.639,112.46 83.994,112.412 83.124,112.412L80.076,112.412L80.076,124.512L83.142,124.512ZM81.999,119.009L83.273,119.009C83.669,119.009 83.988,119.03 84.228,119.076C84.468,119.118 84.681,119.186 84.867,119.282C85.164,119.438 85.395,119.663 85.554,119.952C85.712,120.236 85.793,120.572 85.793,120.956C85.793,121.284 85.728,121.58 85.596,121.85C85.463,122.12 85.274,122.336 85.035,122.495C84.836,122.633 84.563,122.729 84.222,122.784C83.883,122.84 83.367,122.868 82.677,122.868L81.999,122.868L81.999,119.009ZM81.999,114.05L82.751,114.05C83.748,114.05 84.426,114.182 84.786,114.449C85.143,114.716 85.323,115.181 85.323,115.841C85.323,116.451 85.127,116.879 84.741,117.138C84.351,117.392 83.687,117.521 82.751,117.521L81.999,117.521L81.999,114.05ZM78.936,124.512L73.083,111.935L67.224,124.512L69.291,124.512L70.694,121.397L75.489,121.397L76.859,124.512L78.936,124.512ZM72.663,116.999C72.741,116.807 72.815,116.598 72.891,116.367C72.962,116.139 73.035,115.892 73.101,115.628C73.176,115.91 73.253,116.162 73.332,116.393C73.41,116.621 73.481,116.826 73.554,116.999L74.795,119.759L71.423,119.759L72.663,116.999ZM57.086,124.512L57.086,116.099C57.261,116.348 57.447,116.582 57.642,116.81C57.836,117.035 58.041,117.251 58.25,117.455L66.093,124.982L66.093,112.412L64.274,112.412L64.274,120.8C64.038,120.503 63.812,120.236 63.597,119.999C63.38,119.763 63.17,119.54 62.96,119.33L55.274,111.935L55.274,124.512L57.086,124.512ZM52.449,112.412L50.48,112.412L50.48,124.512L52.449,124.512L52.449,112.412ZM49.308,124.512L43.458,111.935L37.599,124.512L39.666,124.512L41.069,121.397L45.864,121.397L47.234,124.512L49.308,124.512ZM43.038,116.999C43.113,116.807 43.19,116.598 43.263,116.367C43.337,116.139 43.41,115.892 43.476,115.628C43.551,115.91 43.628,116.162 43.707,116.393C43.782,116.621 43.856,116.826 43.929,116.999L45.167,119.759L41.795,119.759L43.038,116.999ZM38.97,114.083L38.97,112.412L30.591,112.412L30.591,114.083L33.807,114.083L33.807,124.512L35.771,124.512L35.771,114.083L38.97,114.083ZM23.175,124.121C23.832,124.598 24.678,124.832 25.707,124.832C26.937,124.832 27.912,124.496 28.631,123.824C29.354,123.146 29.714,122.237 29.714,121.091C29.714,120.302 29.493,119.645 29.045,119.12C28.599,118.592 27.78,118.056 26.583,117.503C26.522,117.476 26.438,117.437 26.336,117.39C24.969,116.759 24.285,116.081 24.285,115.355C24.285,114.893 24.44,114.524 24.752,114.248C25.064,113.973 25.484,113.834 26.013,113.834C26.388,113.834 26.721,113.921 27.009,114.098C27.296,114.275 27.563,114.555 27.807,114.932L29.343,114.14C29.111,113.495 28.694,113 28.095,112.659C27.495,112.313 26.748,112.14 25.856,112.14C24.771,112.14 23.895,112.445 23.226,113.057C22.554,113.669 22.221,114.467 22.221,115.454C22.221,116.216 22.442,116.858 22.887,117.383C23.328,117.911 24.216,118.499 25.551,119.147C25.638,119.186 25.767,119.246 25.929,119.33C27.107,119.889 27.699,120.518 27.699,121.232C27.699,121.775 27.524,122.21 27.183,122.537C26.837,122.861 26.373,123.023 25.791,123.023C25.172,123.023 24.666,122.882 24.27,122.598C23.874,122.315 23.601,121.904 23.451,121.364L21.881,122.09C22.085,122.973 22.518,123.65 23.175,124.121ZM9.93,119.942C9.93,121.583 10.341,122.81 11.163,123.618C11.984,124.431 13.227,124.832 14.889,124.832C16.554,124.832 17.798,124.428 18.624,123.614C19.452,122.801 19.866,121.577 19.866,119.942L19.866,112.412L17.897,112.412L17.897,119.759C17.897,120.851 17.646,121.67 17.142,122.219C16.638,122.765 15.888,123.041 14.889,123.041C13.887,123.041 13.134,122.765 12.629,122.219C12.125,121.67 11.874,120.851 11.874,119.759L11.874,112.412L9.93,112.412L9.93,119.942ZM1.292,124.121C1.95,124.598 2.795,124.832 3.825,124.832C5.055,124.832 6.026,124.496 6.749,123.824C7.47,123.146 7.832,122.237 7.832,121.091C7.832,120.302 7.61,119.645 7.164,119.12C6.717,118.592 5.897,118.056 4.701,117.503C4.641,117.476 4.557,117.437 4.452,117.39C3.086,116.759 2.402,116.081 2.402,115.355C2.402,114.893 2.559,114.524 2.871,114.248C3.183,113.973 3.6,113.834 4.13,113.834C4.505,113.834 4.835,113.921 5.126,114.098C5.414,114.275 5.682,114.555 5.921,114.932L7.46,114.14C7.229,113.495 6.812,113 6.212,112.659C5.613,112.313 4.866,112.14 3.972,112.14C2.889,112.14 2.01,112.445 1.341,113.057C0.671,113.669 0.338,114.467 0.338,115.454C0.338,116.216 0.558,116.858 1.001,117.383C1.446,117.911 2.333,118.499 3.665,119.147C3.755,119.186 3.881,119.246 4.046,119.33C5.226,119.889 5.816,120.518 5.816,121.232C5.816,121.775 5.643,122.21 5.301,122.537C4.956,122.861 4.491,123.023 3.906,123.023C3.29,123.023 2.784,122.882 2.388,122.598C1.989,122.315 1.716,121.904 1.568,121.364L0,122.09C0.204,122.973 0.633,123.65 1.292,124.121Z" style="fill:rgb(35,31,32);fill-rule:nonzero;"/>
    </g>
</svg>
