<?xml version="1.0" encoding="utf-8"?>
<!-- Generator: Adobe Illustrator 19.2.1, SVG Export Plug-In . SVG Version: 6.00 Build 0)  -->
<svg version="1.1" id="layer" xmlns="http://www.w3.org/2000/svg" xmlns:xlink="http://www.w3.org/1999/xlink" x="0px" y="0px"
	 viewBox="0 0 652 652" style="enable-background:new 0 0 652 652;" xml:space="preserve">
<path d="M82.1,336.6c0,0.7,0.1,1.3,0.1,2c0,7.3-3,13.1-9,17.2c-5.3,3.6-11.9,5.4-19.6,5.4H21.2v-80.2h32.9c5.8,0,10.7,2.1,14.6,6.2
	c3.9,4.2,5.9,9.1,5.9,14.9c0,6.9-2.9,12.4-8.8,16.5C76,321.2,81.4,327.2,82.1,336.6z M47.3,297.4h-5.5v15.5h5.6c2.1,0,4-0.8,5.6-2.4
	c1.6-1.6,2.4-3.5,2.4-5.5c0-2.3-0.8-4.1-2.3-5.5C51.5,298,49.6,297.4,47.3,297.4z M61,335.6c-0.6-4.9-4-7.3-10.3-7.3H42v17.2h10.1
	c2.5,0,4.7-0.7,6.4-2.2c1.7-1.5,2.6-3.6,2.6-6.3C61.1,336.6,61.1,336.1,61,335.6 M132.9,361.2H87.5v-80.2h20.9v62.7h24.5V361.2z
	 M220.4,361.2h-22l-5.4-13.9h-28.2l-5.6,13.9h-21.9l30.5-80.2h22.8L220.4,361.2z M187.7,331.5l-8.5-25.2l-8.6,25.2H187.7z
	 M276.1,307.7c-4.5-5.9-10.4-8.8-17.9-8.7c-5.8,0.1-10.8,2.2-15,6.3c-4.2,4.1-6.3,9.1-6.5,14.9c-0.2,6.2,1.9,11.6,6.1,16.3
	c4.3,4.7,9.4,6.8,15.4,6.4c7.9-0.6,13.8-3.4,17.7-8.4v24.7c-5.8,2.6-11.4,3.9-16.9,3.9c-1.7,0-3.7-0.1-5.8-0.3
	c-11.1-1-20.4-5.7-27.8-14.1c-7.4-8.4-10.9-18.2-10.5-29.4c0.4-11.5,4.9-21.2,13.6-29c8.7-7.8,18.9-11.6,30.6-11.4
	c5.8,0.1,11.6,1.4,16.9,3.8L276.1,307.7z M355.5,361.2h-26.9l-26.3-34.8v34.8H282v-80.2h20.3v33.3l25-33.3h25.7l-31.5,38.2
	L355.5,361.2z M426,361.2h-25.7l-19.7-30.9v30.9h-20.5v-80.2h29.3c8.2,0,14.7,1.8,19.7,5.3c5.8,4.1,9,10.3,9.6,18.8
	c0,0.7,0,1.4,0,2.1c0,5.3-1.6,9.9-4.9,13.7c-3.1,3.5-7.2,6.1-12.5,7.8L426,361.2z M397.5,307.2c0-2.7-1-5-2.8-6.9
	c-1.9-2-4.1-3-6.6-3H381v19.5h7.8c2.4-0.2,4.6-1.3,6.2-3.1C396.6,311.9,397.6,309.6,397.5,307.2 M560.4,361.2H515v-80.2h20.9v62.7
	h24.5V361.2z M611.6,361.2h-45.4v-80.2h20.9v62.7h24.5V361.2z M496.9,291.7c-8.4-8.2-18.7-12.3-31-12.3c-11.7,0-21.7,3.9-30.1,11.7
	c-8.7,8.1-13.1,18.2-13.1,30.2c0,12.2,4.5,22.5,13.6,30.7c8.6,7.8,18.5,11.7,29.8,11.7c11.8,0,21.9-4.1,30.5-12.4
	c8.6-8.3,12.8-18.2,12.8-29.8C509.4,309.9,505.2,299.9,496.9,291.7L496.9,291.7z M476.9,332.2c-3.1,2.9-6.7,4.4-10.9,4.4
	c-4,0-7.6-1.4-10.6-4.2c-3.2-2.9-4.9-6.6-4.9-11c0-4.3,1.6-7.9,4.7-10.8c3-2.8,6.6-4.2,10.7-4.2c4.4,0,8.1,1.5,11,4.4
	s4.5,6.5,4.5,10.7C481.5,325.7,480,329.3,476.9,332.2L476.9,332.2z M618.5,283.8c0.9,0.9,1.6,1.9,2,3.1c0.5,1.1,0.7,2.4,0.7,3.6
	c0,1.2-0.2,2.5-0.7,3.6c-0.5,1.1-1.2,2.2-2.1,3c-1.8,1.8-4.2,2.8-6.7,2.8c-2.5,0-4.9-1-6.7-2.8c-1.8-1.8-2.8-4.2-2.8-6.7
	c0-1.3,0.3-2.5,0.7-3.7c0.5-1.2,1.2-2.2,2.1-3.1c0.9-0.9,1.9-1.6,3-2c1.1-0.5,2.4-0.7,3.6-0.7c1.3,0,2.5,0.2,3.7,0.7
	C616.5,282.2,617.6,282.9,618.5,283.8L618.5,283.8z M617.7,284.6c-0.8-0.8-1.7-1.4-2.7-1.8c-1-0.4-2.1-0.6-3.2-0.6
	c-1.1,0-2.2,0.2-3.2,0.6c-1,0.4-1.9,1-2.7,1.8c-0.8,0.8-1.4,1.7-1.9,2.7c-0.4,1-0.7,2.1-0.7,3.2c0,1.1,0.2,2.2,0.6,3.2
	c0.4,1,1,1.9,1.8,2.7c0.8,0.8,1.7,1.4,2.7,1.8c1,0.4,2.1,0.6,3.2,0.6c1.1,0,2.2-0.2,3.2-0.6c1-0.4,2-1,2.7-1.8
	c0.8-0.8,1.4-1.7,1.8-2.7s0.6-2.1,0.6-3.2c0-1.1-0.2-2.2-0.6-3.2C619.1,286.3,618.5,285.4,617.7,284.6L617.7,284.6z M616.5,287.9
	c0,1.5-1,2.6-2.5,2.9l2.4,5h-2l-2.3-4.7h-2.3v4.7h-1.8v-10.8h4C615,284.9,616.5,285.9,616.5,287.9L616.5,287.9z M609.8,286.1v3.8
	h1.9c2,0,2.9-0.5,2.9-1.8c0-1.4-1-1.9-3-1.9L609.8,286.1z"/>
</svg>
