<?xml version="1.0" encoding="utf-8"?>
<!-- Generator: Adobe Illustrator 26.3.1, SVG Export Plug-In . SVG Version: 6.00 Build 0)  -->
<svg version="1.1" id="Laag_1" xmlns="http://www.w3.org/2000/svg" xmlns:xlink="http://www.w3.org/1999/xlink" x="0px" y="0px"
	 viewBox="0 0 884.3 884.3" style="enable-background:new 0 0 884.3 884.3;" xml:space="preserve">
<style type="text/css">
	.st0{fill:#E50046;}
	.st1{fill:#FFFFFF;}
</style>
<g>
	<path class="st0" d="M0,442.2C0,198,198,0,442.2,0c244.2,0,442.2,198,442.2,442.2s-198,442.2-442.2,442.2
		C198,884.3,0,686.4,0,442.2"/>
	<path class="st1" d="M453.2,242.1c0-42.4-14.9-73.2-43.8-73.2h-18.7v146h20.9C441.6,314.8,453.2,286.1,453.2,242.1 M486.4,236.6
		c0,53.3-28.7,87.2-76.1,87.2h-64.9v-7.1l5-1c8.3-1.7,9.7-4.3,9.7-13V181.4c0-8.8-1.4-11.4-9.7-13l-5-0.9v-7.1h71.1
		C464.1,160.3,486.4,190,486.4,236.6"/>
	<path class="st1" d="M620.7,278.3v45.5H500.8v-7.1l5-0.9c8.3-1.7,9.7-4.3,9.7-13V181.4c0-8.8-1.4-11.4-9.7-13l-5-0.9v-7.1h118.5v41
		h-8.8c-7.1-27-17.3-32.2-35.5-32.2H546v67.8h21.3c13,0,18.7-3.3,24.9-21.3h7.8v52.4h-7.8c-5.9-17.1-12.3-21.6-26.5-21.6H546V315
		h28.9c18,0,29.4-4.3,36.5-36.7H620.7z"/>
	<path class="st1" d="M362,372.7l-4.3,0.9c-10.9,3.1-15.6,18.7-22.5,46.7l-27,109H299l-34.4-110.9l-32,110.9h-8.8l-39.1-143.3
		c-2.4-8.1-5-10.9-12.6-12.3l-4.7-0.9v-7.1h63v7.1l-6.2,0.9c-10.2,1.4-10.4,4-8.1,12.3l23.7,86.5l31-107.3h7.3l34.8,109l13-53.8
		c6.9-28,11.6-43.6-4-46.7l-5.9-0.9v-7.1H362V372.7z"/>
	<path class="st1" d="M427.8,464.4L407,396.8l-22.5,67.5H427.8z M493,521.9v7.1h-64.2v-7.1l5.7-0.9c9.5-1.7,9.7-4,7.1-12.3
		l-10.9-35.5h-49.3l-0.7,2.4c-8.8,29.1-15.2,42.9,0.9,45.5l6.2,0.9v7.1h-46.7v-7.1l4-0.9c10.7-3.3,16.8-18.2,26.1-45.5l37.4-111.1
		h19L475,508.9c2.1,6.4,4.3,10.2,13.5,12.1L493,521.9z"/>
	<path class="st1" d="M620.7,483.6V529H500.8v-7.1l5-0.9c8.3-1.7,9.7-4.3,9.7-13V386.7c0-8.8-1.4-11.4-9.7-13l-5-0.9v-7.1h118.5v41
		h-8.8c-7.1-27-17.3-32.2-35.5-32.2H546v67.8h21.3c13,0,18.7-3.3,24.9-21.3h7.8v52.4h-7.8c-5.9-17.1-12.3-21.6-26.5-21.6H546v68.7
		h28.9c18,0,29.4-4.3,36.5-36.7H620.7z"/>
	<path class="st1" d="M485.4,684v50.2H375v-7.1l5-0.9c8.3-1.7,9.7-4.3,9.7-13V591.9c0-8.8-1.4-11.4-9.7-13l-5-0.9v-7.1h60.2v7.1
		l-5,0.9c-8.3,1.7-10,4.3-10,13v133.6H442c17.3,0,29.4-7.1,34.4-41.5H485.4z"/>
	<path class="st1" d="M620.7,688.8v45.5H500.8v-7.1l5-0.9c8.3-1.7,9.7-4.3,9.7-13V591.9c0-8.8-1.4-11.4-9.7-13l-5-0.9v-7.1h118.5v41
		h-8.8c-7.1-27-17.3-32.2-35.5-32.2H546v67.8h21.3c13,0,18.7-3.3,24.9-21.3h7.8v52.4h-7.8c-5.9-17.1-12.3-21.6-26.5-21.6H546v68.7
		h28.9c18,0,29.4-4.3,36.5-36.7H620.7z"/>
</g>
</svg>
